<svg xmlns="http://www.w3.org/2000/svg" viewBox="0 0 60 40"><defs><clipPath id="c"><rect width="60" height="40" rx="2"/></clipPath></defs><g clip-path="url(#c)"><rect x="0" y="0.0" width="60" height="3.076923076923077" fill="#b22234"/><rect x="0" y="3.076923076923077" width="60" height="3.076923076923077" fill="#fff"/><rect x="0" y="6.153846153846154" width="60" height="3.076923076923077" fill="#b22234"/><rect x="0" y="9.23076923076923" width="60" height="3.076923076923077" fill="#fff"/><rect x="0" y="12.307692307692308" width="60" height="3.076923076923077" fill="#b22234"/><rect x="0" y="15.384615384615385" width="60" height="3.076923076923077" fill="#fff"/><rect x="0" y="18.46153846153846" width="60" height="3.076923076923077" fill="#b22234"/><rect x="0" y="21.53846153846154" width="60" height="3.076923076923077" fill="#fff"/><rect x="0" y="24.615384615384617" width="60" height="3.076923076923077" fill="#b22234"/><rect x="0" y="27.692307692307693" width="60" height="3.076923076923077" fill="#fff"/><rect x="0" y="30.76923076923077" width="60" height="3.076923076923077" fill="#b22234"/><rect x="0" y="33.84615384615385" width="60" height="3.076923076923077" fill="#fff"/><rect x="0" y="36.92307692307692" width="60" height="3.076923076923077" fill="#b22234"/><rect x="0" y="0" width="25" height="22" fill="#3c3b6e"/><circle cx="3" cy="3.0" r=".75" fill="#fff"/><circle cx="7" cy="3.0" r=".75" fill="#fff"/><circle cx="11" cy="3.0" r=".75" fill="#fff"/><circle cx="15" cy="3.0" r=".75" fill="#fff"/><circle cx="19" cy="3.0" r=".75" fill="#fff"/><circle cx="23" cy="3.0" r=".75" fill="#fff"/><circle cx="3" cy="6.3" r=".75" fill="#fff"/><circle cx="7" cy="6.3" r=".75" fill="#fff"/><circle cx="11" cy="6.3" r=".75" fill="#fff"/><circle cx="15" cy="6.3" r=".75" fill="#fff"/><circle cx="19" cy="6.3" r=".75" fill="#fff"/><circle cx="23" cy="6.3" r=".75" fill="#fff"/><circle cx="3" cy="9.6" r=".75" fill="#fff"/><circle cx="7" cy="9.6" r=".75" fill="#fff"/><circle cx="11" cy="9.6" r=".75" fill="#fff"/><circle cx="15" cy="9.6" r=".75" fill="#fff"/><circle cx="19" cy="9.6" r=".75" fill="#fff"/><circle cx="23" cy="9.6" r=".75" fill="#fff"/><circle cx="3" cy="12.899999999999999" r=".75" fill="#fff"/><circle cx="7" cy="12.899999999999999" r=".75" fill="#fff"/><circle cx="11" cy="12.899999999999999" r=".75" fill="#fff"/><circle cx="15" cy="12.899999999999999" r=".75" fill="#fff"/><circle cx="19" cy="12.899999999999999" r=".75" fill="#fff"/><circle cx="23" cy="12.899999999999999" r=".75" fill="#fff"/><circle cx="3" cy="16.2" r=".75" fill="#fff"/><circle cx="7" cy="16.2" r=".75" fill="#fff"/><circle cx="11" cy="16.2" r=".75" fill="#fff"/><circle cx="15" cy="16.2" r=".75" fill="#fff"/><circle cx="19" cy="16.2" r=".75" fill="#fff"/><circle cx="23" cy="16.2" r=".75" fill="#fff"/><circle cx="3" cy="19.5" r=".75" fill="#fff"/><circle cx="7" cy="19.5" r=".75" fill="#fff"/><circle cx="11" cy="19.5" r=".75" fill="#fff"/><circle cx="15" cy="19.5" r=".75" fill="#fff"/><circle cx="19" cy="19.5" r=".75" fill="#fff"/><circle cx="23" cy="19.5" r=".75" fill="#fff"/></g></svg>